<svg width="68" height="68" viewBox="0 0 68 68" fill="none" xmlns="http://www.w3.org/2000/svg">
<rect width="68" height="68" rx="10" fill="#93AC73" fill-opacity="0.2"/>
<path d="M52.3888 30.5244L44.8134 37.1357L47.0827 46.9786C47.2028 47.4932 47.1685 48.0318 46.9842 48.5269C46.7998 49.0221 46.4736 49.452 46.0463 49.7628C45.619 50.0736 45.1096 50.2516 44.5817 50.2744C44.0538 50.2972 43.5309 50.164 43.0783 49.8912L34.4934 44.6842L25.927 49.8912C25.4745 50.164 24.9515 50.2972 24.4236 50.2744C23.8958 50.2516 23.3863 50.0736 22.959 49.7628C22.5317 49.452 22.2055 49.0221 22.0211 48.5269C21.8368 48.0318 21.8026 47.4932 21.9226 46.9786L24.1885 37.1458L16.6115 30.5244C16.2107 30.1788 15.9209 29.7225 15.7784 29.2128C15.636 28.7032 15.6471 28.1628 15.8105 27.6594C15.974 27.156 16.2824 26.7121 16.6971 26.3834C17.1118 26.0546 17.6143 25.8555 18.1417 25.8112L28.1291 24.9462L32.0276 15.6474C32.2312 15.1595 32.5746 14.7427 33.0146 14.4496C33.4546 14.1564 33.9714 14 34.5001 14C35.0288 14 35.5457 14.1564 35.9857 14.4496C36.4256 14.7427 36.769 15.1595 36.9726 15.6474L40.8829 24.9462L50.867 25.8112C51.3944 25.8555 51.8969 26.0546 52.3116 26.3834C52.7263 26.7121 53.0347 27.156 53.1981 27.6594C53.3615 28.1628 53.3727 28.7032 53.2302 29.2128C53.0878 29.7225 52.798 30.1788 52.3972 30.5244H52.3888Z" fill="black"/>
</svg>
