<svg width="68" height="68" viewBox="0 0 68 68" fill="none" xmlns="http://www.w3.org/2000/svg">
<rect width="68" height="68" rx="10" fill="#9D73AC" fill-opacity="0.2"/>
<path d="M17 22.3121H51C52.5913 22.3121 54.1174 22.9439 55.2426 24.0683C56.3679 25.1928 57 26.7179 57 28.3082C57 29.8984 56.3679 31.4235 55.2426 32.548C54.1174 33.6725 52.5913 34.3042 51 34.3042H48.496C47.5256 38.076 45.211 41.3642 41.9868 43.5517C38.7625 45.7391 34.8502 46.6753 30.9842 46.1847C27.1182 45.694 23.5643 43.8102 20.9895 40.8868C18.4147 37.9633 16.9962 34.2013 17 30.3069V22.3121ZM49 30.3069H51C51.5304 30.3069 52.0391 30.0963 52.4142 29.7215C52.7893 29.3466 53 28.8383 53 28.3082C53 27.7781 52.7893 27.2697 52.4142 26.8949C52.0391 26.5201 51.5304 26.3095 51 26.3095H49V30.3069Z" fill="black"/>
</svg>
