<svg width="68" height="68" viewBox="0 0 68 68" fill="none" xmlns="http://www.w3.org/2000/svg">
<rect width="68" height="68" rx="10" fill="#73AC92" fill-opacity="0.2"/>
<path d="M24.2499 42.7501C26.4672 42.4209 28.4921 41.3054 29.9554 39.6073C31.4186 37.9092 32.2225 35.7416 32.2203 33.5001C32.2315 30.6863 33.2522 27.9699 35.0969 25.8452C36.9416 23.7204 39.4877 22.3283 42.272 21.9221L46.2649 21.3517C46.157 21.2284 46.0645 21.1051 45.9412 20.9817C40.9153 15.9559 31.2645 17.4667 24.3578 24.3426C18.5149 30.2626 16.5416 38.1251 19.2549 43.4592L24.2499 42.7501Z" fill="black"/>
<path d="M34.6256 33.5C34.6155 36.3133 33.5975 39.0298 31.7562 41.1568C29.9149 43.2838 27.3722 44.6804 24.5894 45.0933L20.7969 45.6329L21.0281 45.895C26.054 50.9208 35.7048 49.4254 42.6115 42.5496C48.4235 36.7529 50.4585 28.875 47.7606 23.6179L42.6115 24.3579C40.4084 24.678 38.3924 25.7754 36.9278 27.4521C35.4632 29.1287 34.6467 31.2739 34.6256 33.5Z" fill="black"/>
</svg>
